<svg width="65" height="21" viewBox="0 0 65 21" fill="none" xmlns="http://www.w3.org/2000/svg">
<path d="M0.9 16.74C0.966667 16.54 1.16 16.08 1.48 15.36C1.81333 14.6533 2.25333 13.7067 2.8 12.52C3.36 11.32 4.02 9.9 4.78 8.26C5.54 6.62 6.38667 4.77333 7.32 2.72C7.37333 2.61333 7.41333 2.5 7.44 2.38C7.48 2.26 7.5 2.15333 7.5 2.06C7.5 1.92667 7.46 1.82 7.38 1.74C7.3 1.66 7.14667 1.62 6.92 1.62C6.36 1.62 5.9 1.79333 5.54 2.14C5.19333 2.47333 4.93333 2.88667 4.76 3.38C4.6 3.87333 4.52 4.36 4.52 4.84C4.52 4.96 4.52667 5.1 4.54 5.26C4.55333 5.42 4.57333 5.6 4.6 5.8C4.28 5.8 4.01333 5.70667 3.8 5.52C3.6 5.32 3.44667 5.08 3.34 4.8C3.23333 4.50667 3.18 4.23333 3.18 3.98C3.18 3.55333 3.3 3.14 3.54 2.74C3.79333 2.34 4.12 1.98 4.52 1.66C4.92 1.32667 5.36 1.06667 5.84 0.879999C6.33333 0.693333 6.82 0.599999 7.3 0.599999C7.79333 0.599999 8.21333 0.739999 8.56 1.02C8.90667 1.28667 9.17333 1.78 9.36 2.5C9.54667 3.20667 9.64 4.22667 9.64 5.56C9.64 6.42667 9.60667 7.30667 9.54 8.2C9.48667 9.08 9.42667 9.90667 9.36 10.68C9.29333 11.4533 9.26 12.1133 9.26 12.66C9.52667 11.8733 9.85333 11.04 10.24 10.16C10.64 9.26667 11.0667 8.38667 11.52 7.52C11.9733 6.64 12.42 5.81333 12.86 5.04C13.3 4.26667 13.6933 3.59333 14.04 3.02C14.4 2.43333 14.6733 2 14.86 1.72C15.0467 1.42667 15.2133 1.20667 15.36 1.06C15.5067 0.913333 15.7067 0.84 15.96 0.84C16.1467 0.84 16.44 0.913333 16.84 1.06C16.72 1.31333 16.58 1.72 16.42 2.28C16.26 2.82667 16.0867 3.46667 15.9 4.2C15.7 5 15.5 5.88 15.3 6.84C15.1 7.78667 14.92 8.74667 14.76 9.72C14.6 10.6933 14.4667 11.62 14.36 12.5C14.2667 13.3667 14.22 14.1333 14.22 14.8C14.22 15.1467 14.2333 15.42 14.26 15.62C14.3 15.82 14.3467 15.9933 14.4 16.14C14.4667 16.3 14.54 16.5 14.62 16.74C14.0467 16.74 13.6067 16.6533 13.3 16.48C13.0067 16.3067 12.8067 16.0267 12.7 15.64C12.6067 15.2667 12.56 14.7667 12.56 14.14C12.56 12.66 12.7267 11.1067 13.06 9.48C13.4067 7.84 13.8067 6.15333 14.26 4.42C13.8867 4.95333 13.5 5.58667 13.1 6.32C12.7 7.05333 12.3067 7.82667 11.92 8.64C11.5333 9.45333 11.1667 10.26 10.82 11.06C10.4733 11.8467 10.1667 12.58 9.9 13.26C9.63333 13.9267 9.42667 14.4867 9.28 14.94C9.16 14.98 9.07333 15.0067 9.02 15.02C8.98 15.0333 8.92667 15.04 8.86 15.04C8.39333 15.04 8.09333 14.76 7.96 14.2C7.84 13.6267 7.78 12.8467 7.78 11.86C7.78 11.34 7.78667 10.7867 7.8 10.2C7.81333 9.6 7.83333 8.99333 7.86 8.38C7.88667 7.75333 7.90667 7.13333 7.92 6.52C7.93333 5.90667 7.94 5.32 7.94 4.76C7.94 4.56 7.93333 4.36 7.92 4.16C7.92 3.96 7.92 3.76667 7.92 3.58C6.90667 5.94 6.04667 7.96 5.34 9.64C4.64667 11.3067 4.05333 12.6667 3.56 13.72C3.06667 14.76 2.61333 15.52 2.2 16C1.78667 16.4933 1.35333 16.74 0.9 16.74ZM17.5459 20.6C17.2126 20.6 16.8993 20.4933 16.6059 20.28C16.3259 20.08 16.1859 19.7533 16.1859 19.3C16.1859 18.8733 16.3126 18.4867 16.5659 18.14C16.8193 17.8067 17.1459 17.4933 17.5459 17.2C17.9459 16.92 18.3726 16.66 18.8259 16.42C19.2926 16.1933 19.7393 15.98 20.1659 15.78C20.3126 15.3933 20.4726 14.9067 20.6459 14.32C20.8326 13.72 20.9926 13.1667 21.1259 12.66C20.7126 13.2333 20.2726 13.74 19.8059 14.18C19.3393 14.62 18.8193 14.84 18.2459 14.84C18.0059 14.84 17.7526 14.7933 17.4859 14.7C17.2193 14.5933 16.9926 14.42 16.8059 14.18C16.6326 13.9267 16.5459 13.5933 16.5459 13.18C16.5459 12.8333 16.6059 12.4133 16.7259 11.92C16.8593 11.4267 17.0193 10.9467 17.2059 10.48C17.4059 10 17.6126 9.60667 17.8259 9.3C18.0393 8.98 18.2259 8.82 18.3859 8.82C18.4659 8.82 18.5793 8.85333 18.7259 8.92C18.8859 8.97333 19.0393 9.05333 19.1859 9.16C19.3326 9.25333 19.4259 9.36 19.4659 9.48C19.3459 9.64 19.2126 9.87333 19.0659 10.18C18.9193 10.4733 18.7793 10.8067 18.6459 11.18C18.5126 11.54 18.3993 11.8933 18.3059 12.24C18.2259 12.5867 18.1859 12.8867 18.1859 13.14C18.1859 13.34 18.2259 13.5133 18.3059 13.66C18.3859 13.8067 18.5393 13.88 18.7659 13.88C19.0593 13.88 19.3593 13.76 19.6659 13.52C19.9859 13.28 20.2926 12.9733 20.5859 12.6C20.8926 12.2267 21.1659 11.8467 21.4059 11.46C21.4326 11.3667 21.4593 11.22 21.4859 11.02C21.5126 10.82 21.5593 10.6133 21.6259 10.4C21.6926 10.1733 21.8059 9.96667 21.9659 9.78C22.1393 9.59333 22.3793 9.5 22.6859 9.5C22.7926 9.5 22.8926 9.50667 22.9859 9.52C23.0793 9.53333 23.1926 9.55333 23.3259 9.58C23.3259 9.78 23.2526 10.1733 23.1059 10.76C22.9726 11.3333 22.7926 12 22.5659 12.76C22.3393 13.52 22.0859 14.28 21.8059 15.04C22.3659 14.8133 22.9459 14.44 23.5459 13.92C24.1593 13.3867 24.6526 12.6333 25.0259 11.66L25.3659 11.94C25.1659 12.6067 24.8593 13.1867 24.4459 13.68C24.0459 14.1733 23.5926 14.5933 23.0859 14.94C22.5793 15.2867 22.0659 15.5733 21.5459 15.8C21.1859 16.6667 20.7926 17.4667 20.3659 18.2C19.9526 18.9333 19.5126 19.5133 19.0459 19.94C18.5793 20.38 18.0793 20.6 17.5459 20.6ZM17.3459 19.86C17.5993 19.86 17.9526 19.5933 18.4059 19.06C18.8593 18.5267 19.3193 17.7267 19.7859 16.66C19.3593 16.8733 18.9259 17.12 18.4859 17.4C18.0593 17.6933 17.6993 18 17.4059 18.32C17.1126 18.64 16.9659 18.9667 16.9659 19.3C16.9659 19.4333 16.9926 19.56 17.0459 19.68C17.1126 19.8 17.2126 19.86 17.3459 19.86Z" fill="#E58F65"/>
<path d="M33.3338 16.74C32.8404 16.74 32.2871 16.64 31.6738 16.44C31.0604 16.24 30.4271 16 29.7738 15.72C29.1338 15.44 28.5071 15.1733 27.8938 14.92C27.5604 15.28 27.2004 15.56 26.8138 15.76C26.4271 15.96 26.0138 16.06 25.5738 16.06C25.1071 16.06 24.7071 15.9533 24.3737 15.74C24.0271 15.54 23.7671 15.2933 23.5937 15C23.4071 14.7067 23.3137 14.44 23.3137 14.2C23.3137 13.9333 23.4337 13.7 23.6737 13.5C23.9137 13.3 24.3404 13.2 24.9538 13.2C25.3138 13.2 25.7071 13.24 26.1338 13.32C26.5738 13.3867 27.0204 13.48 27.4738 13.6C27.7804 13.0667 28.0604 12.44 28.3138 11.72C28.5804 11 28.8404 10.2467 29.0938 9.46C29.3471 8.66 29.6004 7.88 29.8538 7.12C29.1871 6.89333 28.6738 6.58 28.3138 6.18C27.9538 5.76667 27.7738 5.35333 27.7738 4.94C27.7738 4.67333 27.8404 4.41333 27.9738 4.16C28.1071 3.89333 28.3004 3.67333 28.5538 3.5C28.8071 3.31333 29.1071 3.22 29.4538 3.22C29.2804 3.43333 29.1671 3.67333 29.1138 3.94C29.0738 4.20667 29.0538 4.42 29.0538 4.58C29.0538 5.02 29.1538 5.39333 29.3538 5.7C29.5538 6.00667 29.8004 6.24667 30.0938 6.42C30.3471 5.66 30.6138 4.93333 30.8938 4.24C31.1871 3.53333 31.5071 2.91333 31.8538 2.38C32.2138 1.83333 32.6071 1.4 33.0338 1.08C33.4738 0.759999 33.9671 0.599999 34.5138 0.599999C34.8204 0.599999 35.1404 0.666666 35.4738 0.799999C35.8204 0.919999 36.1138 1.13333 36.3537 1.44C36.6071 1.74667 36.7338 2.18667 36.7338 2.76C36.7338 3.21333 36.6338 3.7 36.4338 4.22C36.2471 4.74 35.9471 5.24 35.5338 5.72C35.1204 6.18667 34.5871 6.58 33.9338 6.9C33.2938 7.20667 32.5138 7.37333 31.5938 7.4C31.5671 7.4 31.5338 7.4 31.4938 7.4C31.4671 7.4 31.4404 7.4 31.4138 7.4C31.1604 8.17333 30.8938 8.95333 30.6138 9.74C30.3338 10.5267 30.0338 11.28 29.7138 12C29.3938 12.72 29.0471 13.36 28.6738 13.92C29.1938 14.0667 29.7671 14.2333 30.3938 14.42C31.0338 14.6067 31.6671 14.7667 32.2938 14.9C32.9338 15.02 33.4938 15.08 33.9738 15.08C34.2938 15.08 34.5871 15.0467 34.8538 14.98C35.1338 14.9 35.4271 14.7867 35.7338 14.64C35.4671 15.3867 35.1338 15.92 34.7338 16.24C34.3471 16.5733 33.8804 16.74 33.3338 16.74ZM25.3738 15.32C25.7204 15.32 26.0004 15.24 26.2138 15.08C26.4271 14.9333 26.6404 14.7467 26.8538 14.52C26.4404 14.3733 26.0538 14.2533 25.6938 14.16C25.3338 14.0533 25.0204 14 24.7538 14C24.5004 14 24.3204 14.0467 24.2137 14.14C24.0937 14.2333 24.0337 14.3467 24.0337 14.48C24.0337 14.6933 24.1671 14.8867 24.4337 15.06C24.7004 15.2333 25.0138 15.32 25.3738 15.32ZM31.6338 6.74C32.2204 6.7 32.7404 6.51333 33.1938 6.18C33.6471 5.84667 34.0338 5.44667 34.3538 4.98C34.6738 4.51333 34.9138 4.04 35.0738 3.56C35.2471 3.06667 35.3338 2.64 35.3338 2.28C35.3338 1.93333 35.2671 1.7 35.1338 1.58C35.0004 1.44667 34.8471 1.38 34.6738 1.38C34.2871 1.38 33.9204 1.62667 33.5738 2.12C33.2271 2.61333 32.8938 3.26667 32.5738 4.08C32.2671 4.88 31.9538 5.76667 31.6338 6.74ZM38.1469 15.6C37.5602 15.6 37.1202 15.4267 36.8269 15.08C36.5335 14.7333 36.3869 14.3133 36.3869 13.82C36.3869 13.5133 36.4402 13.1267 36.5469 12.66C36.6535 12.1933 36.8002 11.7067 36.9869 11.2C37.1869 10.68 37.4135 10.1933 37.6669 9.74C37.9202 9.28667 38.1935 8.92 38.4869 8.64C38.7802 8.34667 39.0735 8.2 39.3669 8.2C39.5269 8.2 39.6669 8.25333 39.7869 8.36C39.9069 8.45333 39.9669 8.59333 39.9669 8.78C39.9669 8.95333 39.8602 9.21333 39.6469 9.56C39.4469 9.90667 39.2069 10.3067 38.9269 10.76C38.6602 11.2133 38.4202 11.6867 38.2069 12.18C38.0069 12.66 37.9069 13.12 37.9069 13.56C37.9069 13.9867 37.9802 14.2733 38.1269 14.42C38.2869 14.5533 38.5135 14.62 38.8069 14.62C39.2602 14.62 39.7535 14.3933 40.2869 13.94C40.8202 13.4867 41.3735 12.6933 41.9469 11.56L42.2469 11.88C41.7802 13.0533 41.1869 13.9667 40.4669 14.62C39.7469 15.2733 38.9735 15.6 38.1469 15.6ZM40.5069 6.58C40.2535 6.58 40.0202 6.52 39.8069 6.4C39.6069 6.26667 39.5069 6.06667 39.5069 5.8C39.5069 5.48 39.6802 5.20667 40.0269 4.98C40.3735 4.75333 40.7335 4.64 41.1069 4.64C41.3469 4.64 41.5469 4.69333 41.7069 4.8C41.8802 4.90667 41.9669 5.1 41.9669 5.38C41.9669 5.66 41.8135 5.93333 41.5069 6.2C41.2002 6.45333 40.8669 6.58 40.5069 6.58ZM43.5297 16.46C42.7697 16.46 42.1897 16.22 41.7897 15.74C41.403 15.2733 41.2097 14.6267 41.2097 13.8C41.2097 13.1467 41.323 12.3733 41.5497 11.48C41.7764 10.5867 42.0764 9.65333 42.4497 8.68C42.823 7.69333 43.2364 6.73333 43.6897 5.8C44.1564 4.85333 44.6297 4 45.1097 3.24C45.5897 2.46667 46.043 1.85333 46.4697 1.4C46.8964 0.946666 47.263 0.719999 47.5697 0.719999C47.8364 0.719999 48.0364 0.873332 48.1697 1.18C48.303 1.48667 48.3764 1.79333 48.3897 2.1C48.3897 2.47333 48.3097 2.92667 48.1497 3.46C47.9897 3.99333 47.763 4.56 47.4697 5.16C47.1764 5.76 46.8364 6.35333 46.4497 6.94C46.063 7.52667 45.6364 8.06 45.1697 8.54C44.7164 9.02 44.243 9.4 43.7497 9.68C43.6564 9.85333 43.5364 10.1533 43.3897 10.58C43.2564 11.0067 43.1297 11.4933 43.0097 12.04C42.903 12.5867 42.8497 13.1333 42.8497 13.68C42.8497 14.2133 42.923 14.6667 43.0697 15.04C43.2297 15.4267 43.503 15.62 43.8897 15.62C44.2364 15.62 44.6097 15.46 45.0097 15.14C45.4097 14.82 45.7364 14.4333 45.9897 13.98C45.4964 13.7133 45.123 13.34 44.8697 12.86C44.6164 12.38 44.4897 11.8733 44.4897 11.34C44.4897 10.6867 44.663 10.16 45.0097 9.76C45.3697 9.36 45.803 9.16 46.3097 9.16C46.7364 9.16 47.0897 9.32667 47.3697 9.66C47.6497 9.98 47.7897 10.48 47.7897 11.16C47.7897 11.5467 47.7364 11.96 47.6297 12.4C47.5364 12.8267 47.3897 13.2533 47.1897 13.68C47.2564 13.68 47.3097 13.6867 47.3497 13.7C47.403 13.7 47.4697 13.7 47.5497 13.7C48.0164 13.7 48.4164 13.5733 48.7497 13.32C49.083 13.0667 49.363 12.7667 49.5897 12.42C49.8164 12.0733 49.9964 11.76 50.1297 11.48L50.4297 11.9C50.0964 12.6867 49.683 13.2867 49.1897 13.7C48.7097 14.1133 48.0764 14.32 47.2897 14.32C47.223 14.32 47.1497 14.32 47.0697 14.32C47.003 14.32 46.9364 14.3133 46.8697 14.3C46.4964 14.9 46.0297 15.4067 45.4697 15.82C44.923 16.2467 44.2764 16.46 43.5297 16.46ZM46.3297 13.32C46.4497 13.0533 46.5364 12.7867 46.5897 12.52C46.6564 12.24 46.6897 11.94 46.6897 11.62C46.6897 11.14 46.6297 10.7867 46.5097 10.56C46.403 10.3333 46.2697 10.22 46.1097 10.22C45.9364 10.22 45.783 10.34 45.6497 10.58C45.5297 10.82 45.4697 11.1067 45.4697 11.44C45.4697 11.72 45.5297 12.0467 45.6497 12.42C45.7697 12.7933 45.9964 13.0933 46.3297 13.32ZM44.1297 8.42C44.463 8.11333 44.783 7.76 45.0897 7.36C45.4097 6.94667 45.703 6.52 45.9697 6.08C46.2497 5.62667 46.4897 5.18667 46.6897 4.76C46.903 4.32 47.0764 3.92667 47.2097 3.58C47.343 3.22 47.423 2.93333 47.4497 2.72C47.4497 2.69333 47.4497 2.67333 47.4497 2.66C47.4497 2.63333 47.4497 2.61333 47.4497 2.6C47.3297 2.64 47.1297 2.83333 46.8497 3.18C46.583 3.52667 46.2764 3.98 45.9297 4.54C45.5964 5.08667 45.2697 5.7 44.9497 6.38C44.6297 7.04667 44.3564 7.72667 44.1297 8.42ZM49.5733 16.46C49.6533 15.94 49.9599 15.54 50.4933 15.26C51.0399 14.9933 51.7733 14.8133 52.6933 14.72C53.6266 14.6267 54.7066 14.58 55.9333 14.58C56.8533 14.58 57.7066 14.6 58.4933 14.64C59.2933 14.6667 60.0466 14.7067 60.7533 14.76C61.4599 14.8 62.1399 14.84 62.7933 14.88C63.4466 14.92 64.0933 14.9467 64.7333 14.96C64.0399 15.4133 63.3999 15.7333 62.8133 15.92C62.2266 16.1067 61.7333 16.2 61.3333 16.2C60.4133 16.2 59.5066 16.18 58.6133 16.14C57.7333 16.1133 56.9399 16.08 56.2333 16.04C55.5266 16.0133 54.9666 16 54.5533 16C53.8999 16 53.3466 16.0067 52.8933 16.02C52.4533 16.0333 52.0533 16.06 51.6933 16.1C51.3466 16.14 51.0066 16.1867 50.6733 16.24C50.3533 16.3067 49.9866 16.38 49.5733 16.46Z" fill="#D05353"/>
</svg>
